<svg width="389" height="65" viewBox="0 0 389 65" fill="none" xmlns="http://www.w3.org/2000/svg">
<path d="M20.7188 64.2188C16.5 64.2188 12.8438 63.4219 9.75 61.8281C6.65625 60.2031 4.25 58.0312 2.53125 55.3125C0.84375 52.5938 0 49.6094 0 46.3594V17.8594C0 14.5781 0.84375 11.5938 2.53125 8.90625C4.25 6.1875 6.65625 4.03125 9.75 2.4375C12.8438 0.8125 16.5 0 20.7188 0H35.1562C39.375 0 43.0312 0.8125 46.125 2.4375C49.25 4.03125 51.6562 6.1875 53.3438 8.90625C55.0312 11.5938 55.875 14.5781 55.875 17.8594V46.3594C55.875 49.6094 55.0312 52.5938 53.3438 55.3125C51.6562 58.0312 49.25 60.2031 46.125 61.8281C43.0312 63.4219 39.375 64.2188 35.1562 64.2188H20.7188ZM17.8594 42.9844H22.7344V29.1562H35.3438L40.125 28.5938L43.125 25.6406L43.7812 21.6094V11.8125L43.125 7.875L40.125 4.875L35.3438 4.21875H17.8594V42.9844ZM22.7344 24.1875V9.1875H35.0625L38.2969 9.70312L38.7656 12.4688V21.0938L38.1094 23.7188L35.0625 24.1875H22.7344ZM76.2188 64.2188C72 64.2188 68.3438 63.4219 65.25 61.8281C62.1562 60.2031 59.75 58.0312 58.0312 55.3125C56.3438 52.5938 55.5 49.6094 55.5 46.3594V17.8594C55.5 14.5781 56.3438 11.5938 58.0312 8.90625C59.75 6.1875 62.1562 4.03125 65.25 2.4375C68.3438 0.8125 72 0 76.2188 0H90.6562C94.875 0 98.5312 0.8125 101.625 2.4375C104.75 4.03125 107.156 6.1875 108.844 8.90625C110.531 11.5938 111.375 14.5781 111.375 17.8594V46.3594C111.375 49.6094 110.531 52.5938 108.844 55.3125C107.156 58.0312 104.75 60.2031 101.625 61.8281C98.5312 63.4219 94.875 64.2188 90.6562 64.2188H76.2188ZM71.8125 42.9844H76.8281V27.375H89.0156L92.3438 28.875L93.0469 31.4062V42.9844H98.0156V30.8906L96.375 26.5781L91.0312 24.6562L96.1875 22.1719L97.6406 17.9531V12.75L97.0781 8.8125L93.9844 4.875L89.2969 4.21875H71.8125V42.9844ZM76.8281 22.3594V9.1875H89.0156L92.3438 10.6406L92.6719 13.3594V18.3281L91.9688 20.9062L89.0156 22.3594H76.8281ZM131.719 64.2188C127.5 64.2188 123.844 63.4219 120.75 61.8281C117.656 60.2031 115.25 58.0312 113.531 55.3125C111.844 52.5938 111 49.6094 111 46.3594V17.8594C111 14.5781 111.844 11.5938 113.531 8.90625C115.25 6.1875 117.656 4.03125 120.75 2.4375C123.844 0.8125 127.5 0 131.719 0H146.156C150.375 0 154.031 0.8125 157.125 2.4375C160.25 4.03125 162.656 6.1875 164.344 8.90625C166.031 11.5938 166.875 14.5781 166.875 17.8594V46.3594C166.875 49.6094 166.031 52.5938 164.344 55.3125C162.656 58.0312 160.25 60.2031 157.125 61.8281C154.031 63.4219 150.375 64.2188 146.156 64.2188H131.719ZM127.969 42.9844H155.062V38.0156H144.047V9.1875H155.062V4.21875H127.969V9.1875H139.031V38.0156H127.969V42.9844ZM187.219 64.2188C183 64.2188 179.344 63.4219 176.25 61.8281C173.156 60.2031 170.75 58.0312 169.031 55.3125C167.344 52.5938 166.5 49.6094 166.5 46.3594V17.8594C166.5 14.5781 167.344 11.5938 169.031 8.90625C170.75 6.1875 173.156 4.03125 176.25 2.4375C179.344 0.8125 183 0 187.219 0H201.656C205.875 0 209.531 0.8125 212.625 2.4375C215.75 4.03125 218.156 6.1875 219.844 8.90625C221.531 11.5938 222.375 14.5781 222.375 17.8594V46.3594C222.375 49.6094 221.531 52.5938 219.844 55.3125C218.156 58.0312 215.75 60.2031 212.625 61.8281C209.531 63.4219 205.875 64.2188 201.656 64.2188H187.219ZM181.781 42.9844H186.75V9.70312L190.406 9.09375H201.656L204.891 9.60938L205.359 12.375V42.9844H210.375V11.7188L209.719 7.78125L206.719 4.78125L201.938 4.21875H190.219L181.781 5.39062V42.9844Z" fill="url(#paint0_linear_8_3)"/>
<path d="M242.719 64.2188C238.5 64.2188 234.844 63.4219 231.75 61.8281C228.656 60.2031 226.25 58.0312 224.531 55.3125C222.844 52.5938 222 49.6094 222 46.3594V17.8594C222 14.5781 222.844 11.5938 224.531 8.90625C226.25 6.1875 228.656 4.03125 231.75 2.4375C234.844 0.8125 238.5 0 242.719 0H257.156C261.375 0 265.031 0.8125 268.125 2.4375C271.25 4.03125 273.656 6.1875 275.344 8.90625C277.031 11.5938 277.875 14.5781 277.875 17.8594V46.3594C277.875 49.6094 277.031 52.5938 275.344 55.3125C273.656 58.0312 271.25 60.2031 268.125 61.8281C265.031 63.4219 261.375 64.2188 257.156 64.2188H242.719ZM250.031 42.9844H255.047V9.1875H266.062V4.21875H238.969V9.1875H250.031V42.9844Z" fill="url(#paint1_linear_8_3)"/>
<path d="M298.219 64.2188C294 64.2188 290.344 63.4219 287.25 61.8281C284.156 60.2031 281.75 58.0312 280.031 55.3125C278.344 52.5938 277.5 49.6094 277.5 46.3594V17.8594C277.5 14.5781 278.344 11.5938 280.031 8.90625C281.75 6.1875 284.156 4.03125 287.25 2.4375C290.344 0.8125 294 0 298.219 0H312.656C316.875 0 320.531 0.8125 323.625 2.4375C326.75 4.03125 329.156 6.1875 330.844 8.90625C332.531 11.5938 333.375 14.5781 333.375 17.8594V46.3594C333.375 49.6094 332.531 52.5938 330.844 55.3125C329.156 58.0312 326.75 60.2031 323.625 61.8281C320.531 63.4219 316.875 64.2188 312.656 64.2188H298.219ZM300.234 41.4844H312.047L317.531 40.7812L316.359 35.7188L311.953 36.4688H300.562L297.562 36L296.906 33.1875V23.5312H318.797V11.7188L318.094 7.78125L315.141 4.78125L310.406 4.21875H300.234L295.547 4.78125L292.594 7.78125L291.891 11.7188V33.9844L292.594 37.9219L295.547 40.875L300.234 41.4844ZM296.906 18.6094V12.2812L297.281 9.60938L300.562 9.09375H310.125L313.312 9.60938L313.781 12.375V18.6094H296.906ZM353.719 64.2188C349.5 64.2188 345.844 63.4219 342.75 61.8281C339.656 60.2031 337.25 58.0312 335.531 55.3125C333.844 52.5938 333 49.6094 333 46.3594V17.8594C333 14.5781 333.844 11.5938 335.531 8.90625C337.25 6.1875 339.656 4.03125 342.75 2.4375C345.844 0.8125 349.5 0 353.719 0H368.156C372.375 0 376.031 0.8125 379.125 2.4375C382.25 4.03125 384.656 6.1875 386.344 8.90625C388.031 11.5938 388.875 14.5781 388.875 17.8594V46.3594C388.875 49.6094 388.031 52.5938 386.344 55.3125C384.656 58.0312 382.25 60.2031 379.125 61.8281C376.031 63.4219 372.375 64.2188 368.156 64.2188H353.719ZM352.875 43.0781L363.234 26.7656L373.875 43.0781L378.328 41.2969L367.453 23.7188L378.516 5.85938L373.875 4.125L363.234 21L352.875 4.125L348.375 6.04688L359.297 23.7188L348.469 41.2969L352.875 43.0781Z" fill="url(#paint2_linear_8_3)"/>
<defs>
<linearGradient id="paint0_linear_8_3" x1="0.1875" y1="24.7188" x2="389.188" y2="24.7188" gradientUnits="userSpaceOnUse">
<stop stop-color="#00BCFF"/>
<stop offset="1" stop-color="#FF637E"/>
</linearGradient>
<linearGradient id="paint1_linear_8_3" x1="0.1875" y1="24.7188" x2="389.188" y2="24.7188" gradientUnits="userSpaceOnUse">
<stop stop-color="#00BCFF"/>
<stop offset="1" stop-color="#FF637E"/>
</linearGradient>
<linearGradient id="paint2_linear_8_3" x1="0.1875" y1="24.7188" x2="389.188" y2="24.7188" gradientUnits="userSpaceOnUse">
<stop stop-color="#00BCFF"/>
<stop offset="1" stop-color="#FF637E"/>
</linearGradient>
</defs>
</svg>
